<mxfile>
    <diagram id="iRQ_jr0esbavAK3CSFUX" name="Page-1">
        <mxGraphModel dx="606" dy="1111" grid="1" gridSize="10" guides="1" tooltips="1" connect="1" arrows="1" fold="1" page="1" pageScale="1" pageWidth="827" pageHeight="1169" math="0" shadow="0">
            <root>
                <mxCell id="0"/>
                <mxCell id="1" parent="0"/>
                <mxCell id="3" value="Administradores" style="shape=umlActor;verticalLabelPosition=bottom;verticalAlign=top;html=1;" vertex="1" parent="1">
                    <mxGeometry x="770" y="340" width="30" height="60" as="geometry"/>
                </mxCell>
                <mxCell id="4" value="Anónimos" style="shape=umlActor;verticalLabelPosition=bottom;verticalAlign=top;html=1;" vertex="1" parent="1">
                    <mxGeometry x="20" y="340" width="30" height="60" as="geometry"/>
                </mxCell>
                <mxCell id="8" value="Registrado" style="shape=umlActor;verticalLabelPosition=bottom;verticalAlign=top;html=1;" vertex="1" parent="1">
                    <mxGeometry x="680" y="340" width="30" height="60" as="geometry"/>
                </mxCell>
                <mxCell id="12" value="VIP" style="shape=umlActor;verticalLabelPosition=bottom;verticalAlign=top;html=1;" vertex="1" parent="1">
                    <mxGeometry x="770" y="490" width="30" height="60" as="geometry"/>
                </mxCell>
                <mxCell id="13" value="Jugador" style="shape=umlActor;verticalLabelPosition=bottom;verticalAlign=top;html=1;" vertex="1" parent="1">
                    <mxGeometry x="770" y="180" width="30" height="60" as="geometry"/>
                </mxCell>
                <mxCell id="14" value="" style="shape=folder;fontStyle=1;tabWidth=80;tabHeight=30;tabPosition=left;html=1;boundedLbl=1;align=center;" vertex="1" parent="1">
                    <mxGeometry x="80" y="80" width="590" height="700" as="geometry"/>
                </mxCell>
                <mxCell id="24" value="Registrar Usuario" style="ellipse;" vertex="1" parent="1">
                    <mxGeometry x="160" y="270" width="120" height="45" as="geometry"/>
                </mxCell>
                <mxCell id="25" value="iniciar Sesion" style="ellipse;" vertex="1" parent="1">
                    <mxGeometry x="160" y="430" width="120" height="45" as="geometry"/>
                </mxCell>
                <mxCell id="33" value="Modificar datos de &#10;usuario" style="ellipse;" vertex="1" parent="1">
                    <mxGeometry x="400" y="160" width="120" height="50" as="geometry"/>
                </mxCell>
                <mxCell id="34" value="Cerrar Sesión" style="ellipse;" vertex="1" parent="1">
                    <mxGeometry x="400" y="280" width="120" height="50" as="geometry"/>
                </mxCell>
                <mxCell id="35" value="Dar de baja cuenta" style="ellipse;" vertex="1" parent="1">
                    <mxGeometry x="400" y="460" width="120" height="50" as="geometry"/>
                </mxCell>
                <mxCell id="36" value="Hacerse VIP" style="ellipse;" vertex="1" parent="1">
                    <mxGeometry x="400" y="620" width="120" height="50" as="geometry"/>
                </mxCell>
                <mxCell id="38" value="" style="endArrow=none;startArrow=none;endFill=0;startFill=0;endSize=8;html=1;verticalAlign=bottom;labelBackgroundColor=none;strokeWidth=3;entryX=0;entryY=0.5;entryDx=0;entryDy=0;" edge="1" parent="1">
                    <mxGeometry width="160" relative="1" as="geometry">
                        <mxPoint x="60" y="390.0000000000002" as="sourcePoint"/>
                        <mxPoint x="160" y="452.4999999999998" as="targetPoint"/>
                        <Array as="points"/>
                    </mxGeometry>
                </mxCell>
                <mxCell id="39" value="" style="endArrow=none;startArrow=none;endFill=0;startFill=0;endSize=8;html=1;verticalAlign=bottom;labelBackgroundColor=none;strokeWidth=3;entryX=1;entryY=0.5;entryDx=0;entryDy=0;" edge="1" parent="1" target="33">
                    <mxGeometry width="160" relative="1" as="geometry">
                        <mxPoint x="670" y="360" as="sourcePoint"/>
                        <mxPoint x="170" y="462.4999999999998" as="targetPoint"/>
                        <Array as="points"/>
                    </mxGeometry>
                </mxCell>
                <mxCell id="40" value="" style="endArrow=none;startArrow=none;endFill=0;startFill=0;endSize=8;html=1;verticalAlign=bottom;labelBackgroundColor=none;strokeWidth=3;entryX=1;entryY=0.5;entryDx=0;entryDy=0;exitX=1.024;exitY=0.42;exitDx=0;exitDy=0;exitPerimeter=0;" edge="1" parent="1" source="14" target="34">
                    <mxGeometry width="160" relative="1" as="geometry">
                        <mxPoint x="80" y="410.0000000000002" as="sourcePoint"/>
                        <mxPoint x="180" y="472.4999999999998" as="targetPoint"/>
                        <Array as="points"/>
                    </mxGeometry>
                </mxCell>
                <mxCell id="41" value="" style="endArrow=none;startArrow=none;endFill=0;startFill=0;endSize=8;html=1;verticalAlign=bottom;labelBackgroundColor=none;strokeWidth=3;exitX=0;exitY=0.5;exitDx=0;exitDy=0;" edge="1" parent="1">
                    <mxGeometry width="160" relative="1" as="geometry">
                        <mxPoint x="160" y="292.5" as="sourcePoint"/>
                        <mxPoint x="59.999999999999886" y="348" as="targetPoint"/>
                        <Array as="points"/>
                    </mxGeometry>
                </mxCell>
                <mxCell id="42" value="" style="endArrow=none;startArrow=none;endFill=0;startFill=0;endSize=8;html=1;verticalAlign=bottom;labelBackgroundColor=none;strokeWidth=3;exitX=0.5;exitY=0.5;exitDx=0;exitDy=0;exitPerimeter=0;entryX=1;entryY=0.5;entryDx=0;entryDy=0;" edge="1" parent="1" source="8" target="35">
                    <mxGeometry width="160" relative="1" as="geometry">
                        <mxPoint x="170" y="302.5" as="sourcePoint"/>
                        <mxPoint x="69.99999999999989" y="358" as="targetPoint"/>
                        <Array as="points"/>
                    </mxGeometry>
                </mxCell>
                <mxCell id="43" value="" style="endArrow=none;startArrow=none;endFill=0;startFill=0;endSize=8;html=1;verticalAlign=bottom;labelBackgroundColor=none;strokeWidth=3;exitX=0.5;exitY=0.5;exitDx=0;exitDy=0;exitPerimeter=0;entryX=1;entryY=0.5;entryDx=0;entryDy=0;" edge="1" parent="1" source="8" target="36">
                    <mxGeometry width="160" relative="1" as="geometry">
                        <mxPoint x="180" y="312.5" as="sourcePoint"/>
                        <mxPoint x="79.99999999999989" y="368" as="targetPoint"/>
                        <Array as="points"/>
                    </mxGeometry>
                </mxCell>
            </root>
        </mxGraphModel>
    </diagram>
</mxfile>